<svg width="242" height="42" viewBox="0 0 242 42" fill="none" xmlns="http://www.w3.org/2000/svg">
<path d="M56.4231 32.7188C54.588 32.7188 53.1618 32.2071 52.1445 31.1835C51.1472 30.1395 50.6485 28.6758 50.6485 26.7925V19.423H47.836V15.8304H48.1352C48.9331 15.8304 49.5514 15.6155 49.9903 15.1856C50.4291 14.7557 50.6485 14.1313 50.6485 13.3125V12.0228H54.568V15.8304H58.308V19.423H54.568V26.5776C54.568 27.1303 54.6578 27.6011 54.8373 27.9901C55.0368 28.379 55.336 28.6758 55.7349 28.8806C56.1538 29.0853 56.6824 29.1876 57.3207 29.1876C57.4603 29.1876 57.6199 29.1774 57.7994 29.1569C57.9988 29.1364 58.1883 29.116 58.3679 29.0955V32.5346C58.0886 32.5755 57.7695 32.6165 57.4104 32.6574C57.0514 32.6984 56.7223 32.7188 56.4231 32.7188Z" fill="#9AD37F"/>
<path d="M69.1751 32.9031C67.5793 32.9031 66.1232 32.5244 64.8067 31.7669C63.5102 31.0095 62.473 29.9757 61.6951 28.6656C60.9371 27.3555 60.5581 25.8611 60.5581 24.1825C60.5581 22.5039 60.9371 21.0095 61.6951 19.6994C62.473 18.3893 63.5102 17.3555 64.8067 16.5981C66.1033 15.8406 67.5594 15.4619 69.1751 15.4619C70.7708 15.4619 72.2169 15.8406 73.5134 16.5981C74.81 17.3555 75.8372 18.3893 76.5952 19.6994C77.3731 20.989 77.7621 22.4834 77.7621 24.1825C77.7621 25.8611 77.3731 27.3555 76.5952 28.6656C75.8173 29.9757 74.7801 31.0095 73.4835 31.7669C72.187 32.5244 70.7508 32.9031 69.1751 32.9031ZM69.1751 29.2183C70.0527 29.2183 70.8206 29.0034 71.4789 28.5735C72.1571 28.1436 72.6857 27.5499 73.0646 26.7925C73.4636 26.0146 73.663 25.1446 73.663 24.1825C73.663 23.1999 73.4636 22.3401 73.0646 21.6032C72.6857 20.8458 72.1571 20.2521 71.4789 19.8222C70.8206 19.3719 70.0527 19.1467 69.1751 19.1467C68.2775 19.1467 67.4896 19.3719 66.8114 19.8222C66.1332 20.2521 65.5946 20.8458 65.1957 21.6032C64.8167 22.3401 64.6272 23.1999 64.6272 24.1825C64.6272 25.1446 64.8167 26.0146 65.1957 26.7925C65.5946 27.5499 66.1332 28.1436 66.8114 28.5735C67.4896 29.0034 68.2775 29.2183 69.1751 29.2183Z" fill="#9AD37F"/>
<path d="M80.7344 38.6758V15.8304H84.4146V19.1467L84.0556 18.3176C84.6141 17.4169 85.372 16.7209 86.3295 16.2296C87.2869 15.7178 88.394 15.4619 89.6506 15.4619C91.1865 15.4619 92.5728 15.8509 93.8095 16.6288C95.0462 17.4067 96.0236 18.4507 96.7416 19.7608C97.4797 21.0709 97.8487 22.5448 97.8487 24.1825C97.8487 25.7997 97.4896 27.2736 96.7716 28.6042C96.0535 29.9348 95.0761 30.989 93.8394 31.7669C92.6027 32.5244 91.1965 32.9031 89.6207 32.9031C88.4438 32.9031 87.3567 32.6677 86.3594 32.1968C85.382 31.7055 84.6041 31.0095 84.0256 30.1088L84.654 29.3104V38.6758H80.7344ZM89.1719 29.2183C90.0695 29.2183 90.8673 29.0034 91.5655 28.5735C92.2636 28.1436 92.8022 27.5499 93.1812 26.7925C93.5801 26.0351 93.7796 25.1651 93.7796 24.1825C93.7796 23.1999 93.5801 22.3401 93.1812 21.6032C92.8022 20.8458 92.2636 20.2521 91.5655 19.8222C90.8673 19.3719 90.0695 19.1467 89.1719 19.1467C88.3142 19.1467 87.5363 19.3616 86.8381 19.7915C86.1599 20.2214 85.6214 20.8253 85.2224 21.6032C84.8435 22.3606 84.654 23.2204 84.654 24.1825C84.654 25.1651 84.8435 26.0351 85.2224 26.7925C85.6214 27.5499 86.1599 28.1436 86.8381 28.5735C87.5363 29.0034 88.3142 29.2183 89.1719 29.2183Z" fill="#9AD37F"/>
<path d="M100.864 32.5346V15.8304H104.544V19.5459L104.245 18.9932C104.624 17.7444 105.213 16.8744 106.01 16.3831C106.828 15.8918 107.806 15.6462 108.943 15.6462H109.9V19.2081H108.494C107.377 19.2081 106.479 19.5663 105.801 20.2828C105.123 20.9788 104.784 21.9614 104.784 23.2306V32.5346H100.864Z" fill="url(#paint0_linear_2_678)"/>
<path d="M116.992 32.9031C115.855 32.9031 114.867 32.7086 114.03 32.3197C113.192 31.9307 112.544 31.378 112.085 30.6615C111.626 29.9246 111.397 29.075 111.397 28.1129C111.397 27.1917 111.596 26.3729 111.995 25.6564C112.394 24.9195 113.012 24.3053 113.85 23.814C114.688 23.3227 115.745 22.9747 117.022 22.77L122.347 21.8795V24.9502L117.77 25.7485C116.992 25.8918 116.413 26.1477 116.034 26.5162C115.655 26.8847 115.466 27.3657 115.466 27.9594C115.466 28.5326 115.675 28.9931 116.094 29.3412C116.533 29.6687 117.072 29.8325 117.71 29.8325C118.528 29.8325 119.246 29.6585 119.864 29.3104C120.502 28.942 120.991 28.4404 121.33 27.8058C121.689 27.1712 121.869 26.4752 121.869 25.7178V21.4189C121.869 20.7025 121.589 20.1088 121.031 19.638C120.492 19.1467 119.774 18.901 118.877 18.901C118.039 18.901 117.291 19.1364 116.633 19.6073C115.994 20.0576 115.526 20.6615 115.226 21.4189L112.025 19.8222C112.344 18.942 112.843 18.1846 113.521 17.55C114.219 16.8949 115.037 16.3831 115.974 16.0146C116.912 15.6462 117.929 15.4619 119.026 15.4619C120.363 15.4619 121.54 15.7178 122.557 16.2296C123.574 16.7209 124.362 17.4169 124.921 18.3176C125.499 19.1979 125.788 20.2316 125.788 21.4189V32.5346H122.078V29.6789L122.916 29.6175C122.497 30.334 121.998 30.9379 121.42 31.4292C120.841 31.9 120.183 32.2685 119.445 32.5346C118.707 32.7803 117.889 32.9031 116.992 32.9031Z" fill="url(#paint1_linear_2_678)"/>
<path d="M129.411 32.5346V15.8304H133.091V19.116L132.792 18.5326C133.171 17.5295 133.789 16.7721 134.647 16.2603C135.525 15.7281 136.542 15.4619 137.699 15.4619C138.896 15.4619 139.953 15.7281 140.87 16.2603C141.808 16.7925 142.536 17.5397 143.054 18.5019C143.573 19.4435 143.832 20.5387 143.832 21.7874V32.5346H139.913V22.7393C139.913 22.0024 139.773 21.3678 139.494 20.8355C139.215 20.3033 138.826 19.8939 138.327 19.6073C137.848 19.3002 137.28 19.1467 136.622 19.1467C135.983 19.1467 135.415 19.3002 134.916 19.6073C134.418 19.8939 134.029 20.3033 133.749 20.8355C133.47 21.3678 133.33 22.0024 133.33 22.7393V32.5346H129.411Z" fill="url(#paint2_linear_2_678)"/>
<path d="M147.147 32.5346V9.28998H151.066V24.5203L149.57 24.0597L157.23 15.8304H162.107L156.093 22.5551L162.226 32.5346H157.738L152.413 23.8754L154.746 23.3841L149.839 28.7884L151.066 26.3319V32.5346H147.147Z" fill="url(#paint3_linear_2_678)"/>
<path d="M164.415 32.5346V15.8304H168.334V32.5346H164.415ZM164.415 13.9573V9.65845H168.334V13.9573H164.415Z" fill="url(#paint4_linear_2_678)"/>
<path d="M171.953 32.5346V15.8304H175.634V19.116L175.334 18.5326C175.713 17.5295 176.332 16.7721 177.189 16.2603C178.067 15.7281 179.084 15.4619 180.241 15.4619C181.438 15.4619 182.495 15.7281 183.413 16.2603C184.35 16.7925 185.078 17.5397 185.597 18.5019C186.115 19.4435 186.375 20.5387 186.375 21.7874V32.5346H182.455V22.7393C182.455 22.0024 182.316 21.3678 182.036 20.8355C181.757 20.3033 181.368 19.8939 180.87 19.6073C180.391 19.3002 179.822 19.1467 179.164 19.1467C178.526 19.1467 177.957 19.3002 177.459 19.6073C176.96 19.8939 176.571 20.3033 176.292 20.8355C176.013 21.3678 175.873 22.0024 175.873 22.7393V32.5346H171.953Z" fill="url(#paint5_linear_2_678)"/>
<path d="M197.588 39.29C196.371 39.29 195.244 39.0853 194.207 38.6759C193.17 38.2664 192.272 37.6933 191.514 36.9563C190.776 36.2398 190.238 35.3903 189.899 34.4077L193.549 32.9952C193.788 33.7731 194.257 34.3974 194.955 34.8683C195.673 35.3596 196.551 35.6052 197.588 35.6052C198.386 35.6052 199.084 35.4517 199.682 35.1446C200.301 34.8376 200.779 34.3872 201.119 33.7936C201.458 33.2204 201.627 32.5244 201.627 31.7055V27.898L202.375 28.8191C201.817 29.8222 201.069 30.5796 200.131 31.0914C199.194 31.6032 198.127 31.8591 196.93 31.8591C195.414 31.8591 194.057 31.5008 192.861 30.7843C191.664 30.0679 190.726 29.0853 190.048 27.8365C189.37 26.5878 189.031 25.1856 189.031 23.6298C189.031 22.0535 189.37 20.6513 190.048 19.423C190.726 18.1948 191.654 17.2327 192.831 16.5367C194.008 15.8202 195.344 15.4619 196.84 15.4619C198.057 15.4619 199.124 15.7281 200.041 16.2603C200.979 16.7721 201.757 17.5193 202.375 18.5019L201.837 19.5152V15.8304H205.547V31.7055C205.547 33.159 205.198 34.4589 204.5 35.6052C203.821 36.7516 202.884 37.6523 201.687 38.3074C200.51 38.9624 199.144 39.29 197.588 39.29ZM197.408 28.1436C198.246 28.1436 198.974 27.9594 199.593 27.5909C200.231 27.202 200.73 26.6697 201.089 25.9942C201.448 25.3186 201.627 24.5407 201.627 23.6605C201.627 22.8007 201.438 22.0331 201.059 21.3575C200.7 20.6615 200.201 20.119 199.563 19.7301C198.944 19.3412 198.226 19.1467 197.408 19.1467C196.591 19.1467 195.853 19.3412 195.194 19.7301C194.536 20.119 194.018 20.6615 193.639 21.3575C193.28 22.0331 193.1 22.8007 193.1 23.6605C193.1 24.5203 193.28 25.2879 193.639 25.9635C194.018 26.639 194.526 27.1712 195.164 27.5602C195.823 27.9491 196.571 28.1436 197.408 28.1436Z" fill="url(#paint6_linear_2_678)"/>
<path d="M210.431 32.5346V28.2357H214.381V32.5346H210.431Z" fill="#9AD37F"/>
<path d="M224.821 32.9031C223.684 32.9031 222.696 32.7086 221.858 32.3197C221.021 31.9307 220.372 31.378 219.914 30.6615C219.455 29.9246 219.226 29.075 219.226 28.1129C219.226 27.1917 219.425 26.3729 219.824 25.6564C220.223 24.9195 220.841 24.3053 221.679 23.814C222.517 23.3227 223.574 22.9747 224.85 22.77L230.176 21.8795V24.9502L225.598 25.7485C224.821 25.8918 224.242 26.1477 223.863 26.5162C223.484 26.8846 223.295 27.3657 223.295 27.9594C223.295 28.5326 223.504 28.9931 223.923 29.3411C224.362 29.6687 224.9 29.8324 225.539 29.8324C226.356 29.8324 227.075 29.6584 227.693 29.3104C228.331 28.942 228.82 28.4404 229.159 27.8058C229.518 27.1712 229.698 26.4752 229.698 25.7178V21.4189C229.698 20.7025 229.418 20.1088 228.86 19.638C228.321 19.1467 227.603 18.901 226.706 18.901C225.868 18.901 225.12 19.1364 224.462 19.6073C223.823 20.0576 223.354 20.6615 223.055 21.4189L219.854 19.8222C220.173 18.942 220.672 18.1845 221.35 17.55C222.048 16.8949 222.866 16.3831 223.803 16.0146C224.741 15.6462 225.758 15.4619 226.855 15.4619C228.192 15.4619 229.368 15.7178 230.386 16.2296C231.403 16.7209 232.191 17.4169 232.749 18.3176C233.328 19.1979 233.617 20.2316 233.617 21.4189V32.5346H229.907V29.6789L230.745 29.6175C230.326 30.334 229.827 30.9379 229.249 31.4292C228.67 31.9 228.012 32.2685 227.274 32.5346C226.536 32.7802 225.718 32.9031 224.821 32.9031Z" fill="#9AD37F"/>
<path d="M237.24 32.5346V15.8304H241.159V32.5346H237.24ZM237.24 13.9573V9.65845H241.159V13.9573H237.24Z" fill="#9AD37F"/>
<path d="M28.5084 10.5723L40.3745 34.3947C41.8862 37.4294 39.6878 41 36.3077 41H28.5084M28.5084 10.5723L24.9971 3.52301C23.3215 0.158997 18.539 0.158999 16.8633 3.52301L1.4859 34.3947C-0.0257234 37.4294 2.17268 41 5.55276 41H13.3521M28.5084 10.5723L20.9302 18.1792M13.3521 41H28.5084M13.3521 41L5.77389 33.3931M28.5084 41L13.3521 25.7861M20.9302 18.1792L40.2545 37.5769M20.9302 18.1792L13.3521 25.7861M1.6059 37.5769L5.77389 33.3931M5.77389 33.3931L13.3521 25.7861" stroke="url(#paint7_linear_2_678)" stroke-width="2" stroke-linecap="round" stroke-linejoin="round"/>
<defs>
<linearGradient id="paint0_linear_2_678" x1="100.864" y1="39.29" x2="116.754" y2="-16.1563" gradientUnits="userSpaceOnUse">
<stop stop-color="#82DBF7"/>
<stop offset="1" stop-color="#B6F09C"/>
</linearGradient>
<linearGradient id="paint1_linear_2_678" x1="100.864" y1="39.29" x2="116.754" y2="-16.1563" gradientUnits="userSpaceOnUse">
<stop stop-color="#82DBF7"/>
<stop offset="1" stop-color="#B6F09C"/>
</linearGradient>
<linearGradient id="paint2_linear_2_678" x1="100.864" y1="39.29" x2="116.754" y2="-16.1563" gradientUnits="userSpaceOnUse">
<stop stop-color="#82DBF7"/>
<stop offset="1" stop-color="#B6F09C"/>
</linearGradient>
<linearGradient id="paint3_linear_2_678" x1="100.864" y1="39.29" x2="116.754" y2="-16.1563" gradientUnits="userSpaceOnUse">
<stop stop-color="#82DBF7"/>
<stop offset="1" stop-color="#B6F09C"/>
</linearGradient>
<linearGradient id="paint4_linear_2_678" x1="100.864" y1="39.29" x2="116.754" y2="-16.1563" gradientUnits="userSpaceOnUse">
<stop stop-color="#82DBF7"/>
<stop offset="1" stop-color="#B6F09C"/>
</linearGradient>
<linearGradient id="paint5_linear_2_678" x1="100.864" y1="39.29" x2="116.754" y2="-16.1563" gradientUnits="userSpaceOnUse">
<stop stop-color="#82DBF7"/>
<stop offset="1" stop-color="#B6F09C"/>
</linearGradient>
<linearGradient id="paint6_linear_2_678" x1="100.864" y1="39.29" x2="116.754" y2="-16.1563" gradientUnits="userSpaceOnUse">
<stop stop-color="#82DBF7"/>
<stop offset="1" stop-color="#B6F09C"/>
</linearGradient>
<linearGradient id="paint7_linear_2_678" x1="40.8604" y1="1" x2="0.860691" y2="40.8602" gradientUnits="userSpaceOnUse">
<stop stop-color="#82DBF7"/>
<stop offset="1" stop-color="#B6F09C"/>
</linearGradient>
</defs>
</svg>
