<svg width="15" height="14" viewBox="0 0 15 14" fill="none" xmlns="http://www.w3.org/2000/svg">
<path d="M11.2743 4.4182C9.76172 4.4182 8.74688 5.19285 8.33232 5.9273H8.28867V4.65281H5.30566V13.9995H8.41201V9.37125C8.41201 8.15254 8.65957 6.9743 10.2765 6.9743C11.8696 6.9743 11.8934 8.365 11.8934 9.44945V14H14.9965V13.9995H15V8.86484C15 6.35305 14.4205 4.4182 11.2743 4.4182Z" fill="#BDBDBD"/>
<path d="M3.35742 4.65336H0.247559V14H3.35742V4.65336Z" fill="#BDBDBD"/>
<path d="M1.80117 0C0.806836 0 0 0.753047 0 1.68109C0 2.60914 0.806836 3.37805 1.80117 3.37805C2.79551 3.37805 3.60234 2.60914 3.60234 1.68109C3.60176 0.753047 2.79492 0 1.80117 0Z" fill="#BDBDBD"/>
</svg>
