<svg width="15" height="14" viewBox="0 0 15 14" fill="none" xmlns="http://www.w3.org/2000/svg">
<path d="M15 2.03873C14.4481 2.29945 13.8549 2.47619 13.2324 2.55537C13.8676 2.14909 14.3558 1.50609 14.5853 0.739926C13.9906 1.11581 13.3322 1.38933 12.631 1.53648C12.07 0.899077 11.2699 0.5 10.385 0.5C8.68563 0.5 7.30802 1.96915 7.30802 3.78139C7.30802 4.03891 7.33502 4.28923 7.38751 4.52916C4.83102 4.3924 2.56324 3.0864 1.0454 1.10062C0.780672 1.58527 0.628437 2.14909 0.628437 2.75051C0.628437 3.88936 1.17138 4.89305 1.99705 5.48167C1.49235 5.46487 1.0184 5.31692 0.60294 5.07139C0.60294 5.08499 0.60294 5.09858 0.60294 5.11298C0.60294 6.70289 1.66333 8.02888 3.07094 8.33039C2.81297 8.40557 2.54075 8.44555 2.26027 8.44555C2.06229 8.44555 1.86956 8.42476 1.68133 8.38637C2.07279 9.68997 3.20968 10.6385 4.55579 10.6657C3.5029 11.5462 2.17553 12.0708 0.734177 12.0708C0.485951 12.0708 0.240726 12.0556 0 12.0253C1.36186 12.9562 2.97945 13.5 4.71703 13.5C10.3767 13.5 13.4724 8.49994 13.4724 4.16287C13.4724 4.02052 13.4694 3.87896 13.4634 3.7382C14.0648 3.27515 14.586 2.69772 14.9985 2.03953L15 2.03873Z" fill="#BDBDBD"/>
</svg>
