<svg width="15" height="10" viewBox="0 0 15 10" fill="none" xmlns="http://www.w3.org/2000/svg">
<path d="M14.4155 0.858505C13.874 0.248888 12.8744 0 10.965 0H4.035C2.0821 0 1.06548 0.264931 0.525968 0.913966C0 1.54696 0 2.47926 0 3.77V6.23C0 8.73035 0.624194 10 4.035 10H10.9655C12.6213 10 13.5387 9.78045 14.1319 9.24233C14.7402 8.69047 15 7.7898 15 6.23V3.77C15 2.40867 14.9594 1.47087 14.4155 0.858505ZM9.63 5.33941L6.4829 6.89737C6.41274 6.93221 6.33581 6.94963 6.25887 6.94963C6.17177 6.94963 6.08516 6.92763 6.00823 6.88316C5.86355 6.8002 5.775 6.65123 5.775 6.49127V3.38543C5.775 3.22547 5.86306 3.07696 6.00774 2.99354C6.15242 2.91057 6.33194 2.90462 6.48194 2.97841L9.62903 4.52675C9.78919 4.60558 9.88984 4.76188 9.88984 4.93285C9.88984 5.10382 9.78968 5.26058 9.63 5.33941Z" fill="#BDBDBD"/>
</svg>
